<svg width="1600" height="840" viewBox="0 0 1600 840" fill="none" xmlns="http://www.w3.org/2000/svg">
  <rect width="1600" height="840" fill="#FFFFFF"/>
  <text x="80" y="96" fill="#111827" font-family="PingFang SC, Microsoft YaHei, sans-serif" font-size="40" font-weight="700">请求处理流程图</text>

  <g font-family="PingFang SC, Microsoft YaHei, sans-serif">
    <rect x="620" y="150" width="360" height="86" rx="22" fill="#EFF6FF" stroke="#3B82F6" stroke-width="2"/>
    <text x="800" y="202" text-anchor="middle" fill="#1E3A8A" font-size="28" font-weight="700">客户端请求进入系统</text>

    <rect x="620" y="284" width="360" height="86" rx="22" fill="#F0FDF4" stroke="#22C55E" stroke-width="2"/>
    <text x="800" y="336" text-anchor="middle" fill="#14532D" font-size="28" font-weight="700">构建 PacketInfo</text>

    <rect x="620" y="418" width="360" height="86" rx="22" fill="#FFFBEB" stroke="#F59E0B" stroke-width="2"/>
    <text x="800" y="470" text-anchor="middle" fill="#78350F" font-size="28" font-weight="700">L4 检测</text>

    <rect x="240" y="560" width="340" height="96" rx="24" fill="#FEF2F2" stroke="#EF4444" stroke-width="2"/>
    <text x="410" y="608" text-anchor="middle" fill="#7F1D1D" font-size="28" font-weight="700">命中阻断</text>
    <text x="410" y="642" text-anchor="middle" fill="#991B1B" font-size="20">写入安全事件 / 封禁 IP</text>

    <rect x="620" y="560" width="360" height="96" rx="24" fill="#EFF6FF" stroke="#3B82F6" stroke-width="2"/>
    <text x="800" y="608" text-anchor="middle" fill="#1E3A8A" font-size="28" font-weight="700">协议识别</text>
    <text x="800" y="642" text-anchor="middle" fill="#1E40AF" font-size="20">HTTP/1.1 · HTTP/2 · HTTP/3</text>

    <rect x="620" y="704" width="360" height="110" rx="24" fill="#F5F3FF" stroke="#8B5CF6" stroke-width="2"/>
    <text x="800" y="748" text-anchor="middle" fill="#4C1D95" font-size="26" font-weight="700">统一请求抽象</text>
    <text x="800" y="784" text-anchor="middle" fill="#4C1D95" font-size="26" font-weight="700">+ L7 检测</text>

    <rect x="160" y="704" width="340" height="110" rx="24" fill="#FEF2F2" stroke="#EF4444" stroke-width="2"/>
    <text x="330" y="750" text-anchor="middle" fill="#7F1D1D" font-size="26" font-weight="700">事件审计与</text>
    <text x="330" y="786" text-anchor="middle" fill="#7F1D1D" font-size="26" font-weight="700">SQLite 落库</text>

    <rect x="1100" y="704" width="340" height="110" rx="24" fill="#FFFBEB" stroke="#F59E0B" stroke-width="2"/>
    <text x="1270" y="750" text-anchor="middle" fill="#78350F" font-size="26" font-weight="700">网关代理与</text>
    <text x="1270" y="786" text-anchor="middle" fill="#78350F" font-size="26" font-weight="700">上游治理</text>
  </g>

  <path d="M800 236V284" stroke="#9CA3AF" stroke-width="6" stroke-linecap="round"/>
  <path d="M800 370V418" stroke="#9CA3AF" stroke-width="6" stroke-linecap="round"/>
  <path d="M800 504V560" stroke="#9CA3AF" stroke-width="6" stroke-linecap="round"/>
  <path d="M800 656V704" stroke="#9CA3AF" stroke-width="6" stroke-linecap="round"/>
  <path d="M620 752H500" stroke="#9CA3AF" stroke-width="6" stroke-linecap="round"/>
  <path d="M980 752H1100" stroke="#9CA3AF" stroke-width="6" stroke-linecap="round"/>
  <path d="M620 466C500 466 410 512 410 560" stroke="#9CA3AF" stroke-width="6" stroke-linecap="round"/>

  <path d="M800 268L788 250H812L800 268Z" fill="#9CA3AF"/>
  <path d="M800 402L788 384H812L800 402Z" fill="#9CA3AF"/>
  <path d="M800 538L788 520H812L800 538Z" fill="#9CA3AF"/>
  <path d="M800 682L788 664H812L800 682Z" fill="#9CA3AF"/>
  <path d="M522 752L540 740V764L522 752Z" fill="#9CA3AF"/>
  <path d="M1078 752L1060 740V764L1078 752Z" fill="#9CA3AF"/>
</svg>
